# xmcd CD database file
#
# Track frame offsets:
#	150
#	17502
#	35595
#	56684
#	75209
#	90283
#	107217
#	126216
#	144672
#	161456
#	176753
#
# Disc length: 2593 seconds
#
# Revision: 0
# Processed by: cddbd v1.4PL0 Copyright (c) Steve Scherf et al.
# Submitted via: CDex 1.50beta10
#
DISCID=820a1f0b
DTITLE=Jo Dee Messina - Burn
DYEAR=2000
DGENRE=Country
TTITLE0=Downtime
TTITLE1=That's The Way
TTITLE2=Dare To Dream
TTITLE3=Burn
TTITLE4=If Not You
TTITLE5=Closer
TTITLE6=These Are The Days
TTITLE7=Saturday Night
TTITLE8=Angelene
TTITLE9=Nothing I Can Do
TTITLE10=Bring On The Rain
EXTD=YEAR: 2000
EXTT0=
EXTT1=
EXTT2=
EXTT3=
EXTT4=
EXTT5=
EXTT6=
EXTT7=
EXTT8=
EXTT9=
EXTT10=
PLAYORDER=
